<svg id="Layer_3" enable-background="new 0 0 64 64" height="512" viewBox="0 0 64 64" width="512" xmlns="http://www.w3.org/2000/svg"><g><g><path d="m42 62-2.972-2.378c-4.55-3.639-10.202-5.622-16.028-5.622-5.826 0-11.478 1.983-16.028 5.622l-2.972 2.378" fill="#c18e59"/></g><g><path d="m60 62-2.972-2.378c-4.55-3.639-10.202-5.622-16.028-5.622-5.826 0-11.478 1.983-16.028 5.622l-2.972 2.378" fill="#c18e59"/></g><g><path d="m51 62-2.972-2.378c-4.55-3.639-10.202-5.622-16.028-5.622-5.826 0-11.478 1.983-16.028 5.622l-2.972 2.378" fill="#976947"/></g><g><path d="m38 30c-3.314 0-6 2.686-6 6v10c3.314 0 6-2.686 6-6z" fill="#f9d18b"/></g><g><path d="m38 14c-3.314 0-6 2.686-6 6v6c3.314 0 6-2.686 6-6z" fill="#f9d18b"/></g><g><path d="m38 2c-3.314 0-6 2.686-6 6v2c3.314 0 6-2.686 6-6z" fill="#f9d18b"/></g><g><path d="m56 36c-3.314 0-6 2.686-6 6v10c3.314 0 6-2.686 6-6z" fill="#f9d18b"/></g><g><path d="m56 20c-3.314 0-6 2.686-6 6v6c3.314 0 6-2.686 6-6z" fill="#f9d18b"/></g><g><path d="m56 8c-3.314 0-6 2.686-6 6v2c3.314 0 6-2.686 6-6z" fill="#f9d18b"/></g><g><path d="m20 20c-3.314 0-6 2.686-6 6v6c3.314 0 6-2.686 6-6z" fill="#f9d18b"/></g><g><path d="m20 8c-3.314 0-6 2.686-6 6v2c3.314 0 6-2.686 6-6z" fill="#f9d18b"/></g><g><path d="m26 30c3.314 0 6 2.686 6 6v10c-3.314 0-6-2.686-6-6z" fill="#f5b953"/></g><g><path d="m26 14c3.314 0 6 2.686 6 6v6c-3.314 0-6-2.686-6-6z" fill="#f5b953"/></g><g><path d="m26 2c3.314 0 6 2.686 6 6v2c-3.314 0-6-2.686-6-6z" fill="#f5b953"/></g><g><path d="m44 36c3.314 0 6 2.686 6 6v10c-3.314 0-6-2.686-6-6z" fill="#f5b953"/></g><g><path d="m44 20c3.314 0 6 2.686 6 6v6c-3.314 0-6-2.686-6-6z" fill="#f5b953"/></g><g><path d="m44 8c3.314 0 6 2.686 6 6v2c-3.314 0-6-2.686-6-6z" fill="#f5b953"/></g><g><path d="m8 36c3.314 0 6 2.686 6 6v10c-3.314 0-6-2.686-6-6z" fill="#f5b953"/></g><g><path d="m8 20c3.314 0 6 2.686 6 6v6c-3.314 0-6-2.686-6-6z" fill="#f5b953"/></g><g><path d="m8 8c3.314 0 6 2.686 6 6v2c-3.314 0-6-2.686-6-6z" fill="#f5b953"/></g><g><path d="m20 36c-3.314 0-6 2.686-6 6v10c3.314 0 6-2.686 6-6z" fill="#f9d18b"/></g><g><path d="m50.375 62.781-2.972-2.378c-4.355-3.484-9.825-5.403-15.403-5.403s-11.048 1.919-15.403 5.403l-2.972 2.378-1.249-1.562 2.972-2.378c4.708-3.767 10.622-5.841 16.652-5.841s11.944 2.074 16.652 5.841l2.972 2.378z"/></g><g><path d="m59.375 62.781-2.972-2.378c-5.482-4.387-12.798-6.25-19.728-5.021l-.351-1.969c1.541-.274 3.114-.413 4.676-.413 6.03 0 11.944 2.074 16.652 5.841l2.972 2.378z"/></g><g><path d="m4.625 62.781-1.249-1.562 2.972-2.378c4.708-3.767 10.622-5.841 16.652-5.841 1.562 0 3.135.139 4.675.413l-.351 1.969c-6.929-1.229-14.246.635-19.728 5.021z"/></g><g><path d="m1 61h62v2h-62z"/></g><g><path d="m32 47c-.552 0-1-.447-1-1v-10c0-3.86 3.14-7 7-7 .552 0 1 .448 1 1v10c0 3.859-3.14 7-7 7zm5-15.899c-2.279.464-4 2.484-4 4.899v8.899c2.279-.465 4-2.484 4-4.899z"/></g><g><path d="m32 47c-3.86 0-7-3.141-7-7v-10c0-.552.448-1 1-1 3.86 0 7 3.14 7 7v10c0 .553-.448 1-1 1zm-5-15.899v8.899c0 2.415 1.721 4.435 4 4.899v-8.899c0-2.415-1.721-4.435-4-4.899z"/></g><g><path d="m32 27c-.552 0-1-.448-1-1v-6c0-3.86 3.14-7 7-7 .552 0 1 .448 1 1v6c0 3.86-3.14 7-7 7zm5-11.899c-2.279.464-4 2.485-4 4.899v4.899c2.279-.464 4-2.485 4-4.899z"/></g><g><path d="m32 11c-.552 0-1-.448-1-1v-2c0-3.86 3.14-7 7-7 .552 0 1 .448 1 1v2c0 3.86-3.14 7-7 7zm5-7.899c-2.279.464-4 2.484-4 4.899v.899c2.279-.464 4-2.484 4-4.899z"/></g><g><path d="m32 27c-3.86 0-7-3.14-7-7v-6c0-.552.448-1 1-1 3.86 0 7 3.14 7 7v6c0 .552-.448 1-1 1zm-5-11.899v4.899c0 2.415 1.721 4.435 4 4.899v-4.899c0-2.415-1.721-4.435-4-4.899z"/></g><g><path d="m32 11c-3.86 0-7-3.14-7-7v-2c0-.552.448-1 1-1 3.86 0 7 3.14 7 7v2c0 .552-.448 1-1 1zm-5-7.899v.899c0 2.415 1.721 4.435 4 4.899v-.899c0-2.415-1.721-4.435-4-4.899z"/></g><g><path d="m31 10h2v44h-2z"/></g><g><path d="m50 53c-.552 0-1-.447-1-1v-10c0-3.859 3.14-7 7-7 .552 0 1 .447 1 1v10c0 3.859-3.14 7-7 7zm5-15.899c-2.279.465-4 2.484-4 4.899v8.899c2.279-.465 4-2.484 4-4.899z"/></g><g><path d="m50 53c-3.86 0-7-3.141-7-7v-10c0-.553.448-1 1-1 3.86 0 7 3.141 7 7v10c0 .553-.448 1-1 1zm-5-15.899v8.899c0 2.415 1.721 4.435 4 4.899v-8.899c0-2.415-1.721-4.435-4-4.899z"/></g><g><path d="m50 33c-.552 0-1-.448-1-1v-6c0-3.86 3.14-7 7-7 .552 0 1 .448 1 1v6c0 3.86-3.14 7-7 7zm5-11.899c-2.279.464-4 2.485-4 4.899v4.899c2.279-.464 4-2.485 4-4.899z"/></g><g><path d="m50 17c-.552 0-1-.448-1-1v-2c0-3.86 3.14-7 7-7 .552 0 1 .448 1 1v2c0 3.86-3.14 7-7 7zm5-7.899c-2.279.464-4 2.485-4 4.899v.899c2.279-.464 4-2.485 4-4.899z"/></g><g><path d="m50 33c-3.86 0-7-3.14-7-7v-6c0-.552.448-1 1-1 3.86 0 7 3.14 7 7v6c0 .552-.448 1-1 1zm-5-11.899v4.899c0 2.415 1.721 4.435 4 4.899v-4.899c0-2.415-1.721-4.435-4-4.899z"/></g><g><path d="m50 17c-3.86 0-7-3.14-7-7v-2c0-.552.448-1 1-1 3.86 0 7 3.14 7 7v2c0 .552-.448 1-1 1zm-5-7.899v.899c0 2.415 1.721 4.435 4 4.899v-.899c0-2.415-1.721-4.435-4-4.899z"/></g><g><path d="m49 16h2v40h-2z"/></g><g><path d="m14 53c-.552 0-1-.447-1-1v-10c0-3.859 3.14-7 7-7 .552 0 1 .447 1 1v10c0 3.859-3.14 7-7 7zm5-15.899c-2.279.465-4 2.484-4 4.899v8.899c2.279-.465 4-2.484 4-4.899z"/></g><g><path d="m14 53c-3.86 0-7-3.141-7-7v-10c0-.553.448-1 1-1 3.86 0 7 3.141 7 7v10c0 .553-.448 1-1 1zm-5-15.899v8.899c0 2.415 1.721 4.435 4 4.899v-8.899c0-2.415-1.721-4.435-4-4.899z"/></g><g><path d="m14 33c-.552 0-1-.448-1-1v-6c0-3.86 3.14-7 7-7 .552 0 1 .448 1 1v6c0 3.86-3.14 7-7 7zm5-11.899c-2.279.464-4 2.485-4 4.899v4.899c2.279-.464 4-2.485 4-4.899z"/></g><g><path d="m14 17c-.552 0-1-.448-1-1v-2c0-3.86 3.14-7 7-7 .552 0 1 .448 1 1v2c0 3.86-3.14 7-7 7zm5-7.899c-2.279.464-4 2.485-4 4.899v.899c2.279-.464 4-2.485 4-4.899z"/></g><g><path d="m14 33c-3.86 0-7-3.14-7-7v-6c0-.552.448-1 1-1 3.86 0 7 3.14 7 7v6c0 .552-.448 1-1 1zm-5-11.899v4.899c0 2.415 1.721 4.435 4 4.899v-4.899c0-2.415-1.721-4.435-4-4.899z"/></g><g><path d="m14 17c-3.86 0-7-3.14-7-7v-2c0-.552.448-1 1-1 3.86 0 7 3.14 7 7v2c0 .552-.448 1-1 1zm-5-7.899v.899c0 2.415 1.721 4.435 4 4.899v-.899c0-2.415-1.721-4.435-4-4.899z"/></g><g><path d="m13 16h2v40h-2z"/></g></g></svg>